<svg xmlns="http://www.w3.org/2000/svg" xmlns:xlink="http://www.w3.org/1999/xlink" width="512" zoomAndPan="magnify" viewBox="0 0 384 383.999986" height="512" preserveAspectRatio="xMidYMid meet" version="1.0"><defs><g/><clipPath id="53c7b8d6c5"><rect x="0" width="233" y="0" height="339"/></clipPath><clipPath id="3abeb52aa1"><rect x="0" width="226" y="0" height="54"/></clipPath></defs><rect x="-38.4" width="460.8" fill="#ffffff" y="-38.399999" height="460.799983" fill-opacity="1"/><rect x="-38.4" width="460.8" fill="#8c52ff" y="-38.399999" height="460.799983" fill-opacity="1"/><g transform="matrix(1, 0, 0, 1, 74, 0)"><g clip-path="url(#53c7b8d6c5)"><g fill="#ffe08d" fill-opacity="1"><g transform="translate(0.786185, 258.830783)"><g><path d="M 9.140625 0 L 9.140625 -206.515625 L 50.25 -206.515625 L 50.25 -132.71875 L 69.71875 -132.71875 L 69.71875 -206.515625 L 110.828125 -206.515625 L 110.828125 0 L 69.71875 0 L 69.71875 -93.765625 L 50.25 -93.765625 L 50.25 0 Z M 9.140625 0 "/></g></g></g><g fill="#ffe08d" fill-opacity="1"><g transform="translate(116.421195, 258.830783)"><g><path d="M 67.5625 0.234375 C 61.46875 1.359375 58.019531 1.921875 57.21875 1.921875 C 40.550781 1.921875 27.890625 -2.84375 19.234375 -12.375 C 10.578125 -21.914062 6.25 -35.898438 6.25 -54.328125 L 6.25 -154.109375 C 6.25 -171.898438 10.613281 -185.40625 19.34375 -194.625 C 28.082031 -203.84375 40.707031 -208.453125 57.21875 -208.453125 C 73.726562 -208.453125 86.347656 -203.84375 95.078125 -194.625 C 103.816406 -185.40625 108.1875 -171.898438 108.1875 -154.109375 L 108.1875 -54.328125 C 108.1875 -37.335938 104.34375 -23.875 96.65625 -13.9375 L 114.4375 -2.640625 L 100.5 21.875 Z M 57.21875 -36.0625 C 61.226562 -36.0625 63.789062 -37.984375 64.90625 -41.828125 C 66.03125 -45.679688 66.59375 -50.648438 66.59375 -56.734375 L 66.59375 -153.390625 C 66.59375 -158.679688 65.910156 -162.847656 64.546875 -165.890625 C 63.191406 -168.929688 60.671875 -170.453125 56.984375 -170.453125 C 50.410156 -170.453125 47.125 -164.84375 47.125 -153.625 L 47.125 -56.015625 C 47.125 -50.242188 47.765625 -45.472656 49.046875 -41.703125 C 50.328125 -37.941406 53.050781 -36.0625 57.21875 -36.0625 Z M 57.21875 -36.0625 "/></g></g></g></g></g><g transform="matrix(1, 0, 0, 1, 83, 273)"><g clip-path="url(#3abeb52aa1)"><g fill="#ffffff" fill-opacity="1"><g transform="translate(0.37343, 40.251288)"><g><path d="M 26.640625 0 L 20.671875 0 L 20.671875 -12.15625 L 9.515625 -12.15625 L 9.515625 0 L 3.546875 0 L 3.546875 -28.171875 L 9.515625 -28.171875 L 9.515625 -17.125 L 20.671875 -17.125 L 20.671875 -28.171875 L 26.640625 -28.171875 Z M 26.640625 0 "/></g></g></g><g fill="#ffffff" fill-opacity="1"><g transform="translate(30.549139, 40.251288)"><g><path d="M 20.796875 0 L 18.75 -6.703125 L 8.484375 -6.703125 L 6.4375 0 L 0 0 L 9.9375 -28.296875 L 17.25 -28.296875 L 27.234375 0 Z M 17.328125 -11.71875 C 15.441406 -17.789062 14.378906 -21.222656 14.140625 -22.015625 C 13.898438 -22.816406 13.726562 -23.453125 13.625 -23.921875 C 13.195312 -22.273438 11.984375 -18.207031 9.984375 -11.71875 Z M 17.328125 -11.71875 "/></g></g></g><g fill="#ffffff" fill-opacity="1"><g transform="translate(57.759271, 40.251288)"><g><path d="M 3.546875 0 L 3.546875 -28.171875 L 9.515625 -28.171875 L 9.515625 0 Z M 3.546875 0 "/></g></g></g><g fill="#ffffff" fill-opacity="1"><g transform="translate(70.815512, 40.251288)"><g><path d="M 26.203125 0 L 19.421875 0 L 12.046875 -11.875 L 9.515625 -10.0625 L 9.515625 0 L 3.546875 0 L 3.546875 -28.171875 L 9.515625 -28.171875 L 9.515625 -15.28125 L 11.875 -18.59375 L 19.5 -28.171875 L 26.125 -28.171875 L 16.296875 -15.703125 Z M 26.203125 0 "/></g></g></g><g fill="#ffffff" fill-opacity="1"><g transform="translate(97.005023, 40.251288)"><g><path d="M 26.484375 -28.171875 L 26.484375 -9.9375 C 26.484375 -7.863281 26.015625 -6.039062 25.078125 -4.46875 C 24.148438 -2.90625 22.804688 -1.703125 21.046875 -0.859375 C 19.285156 -0.0234375 17.203125 0.390625 14.796875 0.390625 C 11.171875 0.390625 8.359375 -0.535156 6.359375 -2.390625 C 4.359375 -4.253906 3.359375 -6.796875 3.359375 -10.015625 L 3.359375 -28.171875 L 9.3125 -28.171875 L 9.3125 -10.921875 C 9.3125 -8.753906 9.742188 -7.160156 10.609375 -6.140625 C 11.484375 -5.128906 12.929688 -4.625 14.953125 -4.625 C 16.910156 -4.625 18.328125 -5.132812 19.203125 -6.15625 C 20.085938 -7.175781 20.53125 -8.78125 20.53125 -10.96875 L 20.53125 -28.171875 Z M 26.484375 -28.171875 "/></g></g></g><g fill="#ffffff" fill-opacity="1"><g transform="translate(126.814849, 40.251288)"><g><path d="M 29.125 -14.125 C 29.125 -10.8125 28.535156 -8.03125 27.359375 -5.78125 C 26.179688 -3.539062 24.457031 -1.90625 22.1875 -0.875 L 28.96875 6.703125 L 21.3125 6.703125 L 16.15625 0.390625 L 15.703125 0.390625 C 11.390625 0.390625 8.078125 -0.859375 5.765625 -3.359375 C 3.453125 -5.867188 2.296875 -9.472656 2.296875 -14.171875 C 2.296875 -18.859375 3.453125 -22.4375 5.765625 -24.90625 C 8.085938 -27.382812 11.414062 -28.625 15.75 -28.625 C 20.070312 -28.625 23.378906 -27.375 25.671875 -24.875 C 27.972656 -22.382812 29.125 -18.800781 29.125 -14.125 Z M 8.5625 -14.125 C 8.5625 -10.976562 9.15625 -8.609375 10.34375 -7.015625 C 11.539062 -5.421875 13.328125 -4.625 15.703125 -4.625 C 20.472656 -4.625 22.859375 -7.789062 22.859375 -14.125 C 22.859375 -20.46875 20.488281 -23.640625 15.75 -23.640625 C 13.375 -23.640625 11.582031 -22.835938 10.375 -21.234375 C 9.164062 -19.640625 8.5625 -17.269531 8.5625 -14.125 Z M 8.5625 -14.125 "/></g></g></g><g fill="#ffffff" fill-opacity="1"><g transform="translate(158.203748, 40.251288)"><g><path d="M 26.484375 -28.171875 L 26.484375 -9.9375 C 26.484375 -7.863281 26.015625 -6.039062 25.078125 -4.46875 C 24.148438 -2.90625 22.804688 -1.703125 21.046875 -0.859375 C 19.285156 -0.0234375 17.203125 0.390625 14.796875 0.390625 C 11.171875 0.390625 8.359375 -0.535156 6.359375 -2.390625 C 4.359375 -4.253906 3.359375 -6.796875 3.359375 -10.015625 L 3.359375 -28.171875 L 9.3125 -28.171875 L 9.3125 -10.921875 C 9.3125 -8.753906 9.742188 -7.160156 10.609375 -6.140625 C 11.484375 -5.128906 12.929688 -4.625 14.953125 -4.625 C 16.910156 -4.625 18.328125 -5.132812 19.203125 -6.15625 C 20.085938 -7.175781 20.53125 -8.78125 20.53125 -10.96875 L 20.53125 -28.171875 Z M 26.484375 -28.171875 "/></g></g></g><g fill="#ffffff" fill-opacity="1"><g transform="translate(188.013574, 40.251288)"><g><path d="M 3.546875 0 L 3.546875 -28.171875 L 9.515625 -28.171875 L 9.515625 0 Z M 3.546875 0 "/></g></g></g><g fill="#ffffff" fill-opacity="1"><g transform="translate(201.069815, 40.251288)"><g><path d="M 21.90625 0 L 0.9375 0 L 0.9375 -3.875 L 14.453125 -23.234375 L 1.3125 -23.234375 L 1.3125 -28.171875 L 21.546875 -28.171875 L 21.546875 -24.328125 L 8.0625 -4.9375 L 21.90625 -4.9375 Z M 21.90625 0 "/></g></g></g></g></g></svg>